<mxfile host="app.diagrams.net" agent="Mozilla/5.0 (X11; Linux x86_64) AppleWebKit/537.36 (KHTML, like Gecko) Chrome/137.0.0.0 Safari/537.36" version="27.1.6">
  <diagram name="Page-1" id="5eS-_mKIzPM18mZ0HDGt">
    <mxGraphModel dx="1233" dy="692" grid="1" gridSize="10" guides="1" tooltips="1" connect="1" arrows="1" fold="1" page="1" pageScale="1" pageWidth="827" pageHeight="1169" math="0" shadow="0">
      <root>
        <mxCell id="0" />
        <mxCell id="1" parent="0" />
        <mxCell id="k9vhlAKsYk3Ox_He_cWh-3" value="" style="ellipse;shape=cloud;whiteSpace=wrap;html=1;" vertex="1" parent="1">
          <mxGeometry x="180" y="160" width="120" height="80" as="geometry" />
        </mxCell>
        <mxCell id="k9vhlAKsYk3Ox_He_cWh-4" value="" style="image;html=1;image=img/lib/clip_art/computers/Server_128x128.png" vertex="1" parent="1">
          <mxGeometry x="340" y="120" width="80" height="80" as="geometry" />
        </mxCell>
        <mxCell id="k9vhlAKsYk3Ox_He_cWh-5" value="" style="image;html=1;image=img/lib/clip_art/computers/Server_128x128.png" vertex="1" parent="1">
          <mxGeometry x="340" y="210" width="80" height="80" as="geometry" />
        </mxCell>
        <mxCell id="k9vhlAKsYk3Ox_He_cWh-6" value="" style="image;html=1;image=img/lib/clip_art/computers/Laptop_128x128.png" vertex="1" parent="1">
          <mxGeometry x="30" y="170" width="80" height="80" as="geometry" />
        </mxCell>
        <mxCell id="k9vhlAKsYk3Ox_He_cWh-7" value="" style="endArrow=none;html=1;rounded=0;" edge="1" parent="1" source="k9vhlAKsYk3Ox_He_cWh-6" target="k9vhlAKsYk3Ox_He_cWh-3">
          <mxGeometry width="50" height="50" relative="1" as="geometry">
            <mxPoint x="390" y="420" as="sourcePoint" />
            <mxPoint x="440" y="370" as="targetPoint" />
          </mxGeometry>
        </mxCell>
        <mxCell id="k9vhlAKsYk3Ox_He_cWh-8" value="" style="endArrow=none;html=1;rounded=0;" edge="1" parent="1" source="k9vhlAKsYk3Ox_He_cWh-3" target="k9vhlAKsYk3Ox_He_cWh-5">
          <mxGeometry width="50" height="50" relative="1" as="geometry">
            <mxPoint x="390" y="420" as="sourcePoint" />
            <mxPoint x="440" y="370" as="targetPoint" />
          </mxGeometry>
        </mxCell>
        <mxCell id="k9vhlAKsYk3Ox_He_cWh-10" value="" style="endArrow=none;html=1;rounded=0;exitX=0.625;exitY=0.2;exitDx=0;exitDy=0;exitPerimeter=0;entryX=0;entryY=0.5;entryDx=0;entryDy=0;" edge="1" parent="1" source="k9vhlAKsYk3Ox_He_cWh-3" target="k9vhlAKsYk3Ox_He_cWh-4">
          <mxGeometry width="50" height="50" relative="1" as="geometry">
            <mxPoint x="390" y="420" as="sourcePoint" />
            <mxPoint x="440" y="370" as="targetPoint" />
          </mxGeometry>
        </mxCell>
        <mxCell id="k9vhlAKsYk3Ox_He_cWh-11" value="" style="image;html=1;image=img/lib/clip_art/computers/Server_Rack_128x128.png" vertex="1" parent="1">
          <mxGeometry x="480" y="50" width="80" height="80" as="geometry" />
        </mxCell>
        <mxCell id="k9vhlAKsYk3Ox_He_cWh-12" value="" style="image;html=1;image=img/lib/clip_art/computers/Server_Rack_128x128.png" vertex="1" parent="1">
          <mxGeometry x="480" y="160" width="80" height="80" as="geometry" />
        </mxCell>
        <mxCell id="k9vhlAKsYk3Ox_He_cWh-13" value="" style="image;html=1;image=img/lib/clip_art/computers/Server_Rack_128x128.png" vertex="1" parent="1">
          <mxGeometry x="480" y="270" width="80" height="80" as="geometry" />
        </mxCell>
        <mxCell id="k9vhlAKsYk3Ox_He_cWh-14" value="" style="strokeWidth=2;html=1;shape=mxgraph.flowchart.database;whiteSpace=wrap;" vertex="1" parent="1">
          <mxGeometry x="490" y="390" width="60" height="60" as="geometry" />
        </mxCell>
        <mxCell id="k9vhlAKsYk3Ox_He_cWh-16" value="" style="line;strokeWidth=4;direction=south;html=1;perimeter=backbonePerimeter;points=[];outlineConnect=0;" vertex="1" parent="1">
          <mxGeometry x="450" y="60" width="10" height="370" as="geometry" />
        </mxCell>
        <mxCell id="k9vhlAKsYk3Ox_He_cWh-18" value="" style="endArrow=none;html=1;rounded=0;exitX=1;exitY=0.5;exitDx=0;exitDy=0;" edge="1" parent="1" source="k9vhlAKsYk3Ox_He_cWh-4" target="k9vhlAKsYk3Ox_He_cWh-16">
          <mxGeometry width="50" height="50" relative="1" as="geometry">
            <mxPoint x="390" y="380" as="sourcePoint" />
            <mxPoint x="440" y="330" as="targetPoint" />
          </mxGeometry>
        </mxCell>
        <mxCell id="k9vhlAKsYk3Ox_He_cWh-19" value="" style="endArrow=none;html=1;rounded=0;" edge="1" parent="1" source="k9vhlAKsYk3Ox_He_cWh-5" target="k9vhlAKsYk3Ox_He_cWh-16">
          <mxGeometry width="50" height="50" relative="1" as="geometry">
            <mxPoint x="390" y="380" as="sourcePoint" />
            <mxPoint x="440" y="330" as="targetPoint" />
          </mxGeometry>
        </mxCell>
        <mxCell id="k9vhlAKsYk3Ox_He_cWh-20" value="" style="endArrow=none;html=1;rounded=0;" edge="1" parent="1" source="k9vhlAKsYk3Ox_He_cWh-16" target="k9vhlAKsYk3Ox_He_cWh-11">
          <mxGeometry width="50" height="50" relative="1" as="geometry">
            <mxPoint x="430" y="270" as="sourcePoint" />
            <mxPoint x="440" y="330" as="targetPoint" />
          </mxGeometry>
        </mxCell>
        <mxCell id="k9vhlAKsYk3Ox_He_cWh-21" value="" style="endArrow=none;html=1;rounded=0;" edge="1" parent="1" source="k9vhlAKsYk3Ox_He_cWh-16">
          <mxGeometry width="50" height="50" relative="1" as="geometry">
            <mxPoint x="470" y="220" as="sourcePoint" />
            <mxPoint x="510" y="210" as="targetPoint" />
          </mxGeometry>
        </mxCell>
        <mxCell id="k9vhlAKsYk3Ox_He_cWh-22" value="" style="endArrow=none;html=1;rounded=0;" edge="1" parent="1" source="k9vhlAKsYk3Ox_He_cWh-16" target="k9vhlAKsYk3Ox_He_cWh-13">
          <mxGeometry width="50" height="50" relative="1" as="geometry">
            <mxPoint x="580" y="220" as="sourcePoint" />
            <mxPoint x="630" y="170" as="targetPoint" />
            <Array as="points">
              <mxPoint x="490" y="310" />
            </Array>
          </mxGeometry>
        </mxCell>
        <mxCell id="k9vhlAKsYk3Ox_He_cWh-23" value="" style="endArrow=none;html=1;rounded=0;" edge="1" parent="1" source="k9vhlAKsYk3Ox_He_cWh-16" target="k9vhlAKsYk3Ox_He_cWh-14">
          <mxGeometry width="50" height="50" relative="1" as="geometry">
            <mxPoint x="580" y="370" as="sourcePoint" />
            <mxPoint x="630" y="320" as="targetPoint" />
          </mxGeometry>
        </mxCell>
        <mxCell id="k9vhlAKsYk3Ox_He_cWh-24" value="Internet" style="text;strokeColor=none;align=center;fillColor=none;html=1;verticalAlign=middle;whiteSpace=wrap;rounded=0;" vertex="1" parent="1">
          <mxGeometry x="210" y="185" width="60" height="30" as="geometry" />
        </mxCell>
        <mxCell id="k9vhlAKsYk3Ox_He_cWh-25" value="Login&lt;div&gt;Nodes&lt;/div&gt;" style="text;strokeColor=none;align=center;fillColor=none;html=1;verticalAlign=middle;whiteSpace=wrap;rounded=0;" vertex="1" parent="1">
          <mxGeometry x="350" y="185" width="60" height="30" as="geometry" />
        </mxCell>
        <mxCell id="k9vhlAKsYk3Ox_He_cWh-26" value="Compute&lt;div&gt;Nodes&lt;/div&gt;" style="text;html=1;align=center;verticalAlign=middle;resizable=0;points=[];autosize=1;strokeColor=none;fillColor=none;" vertex="1" parent="1">
          <mxGeometry x="565" y="53" width="70" height="40" as="geometry" />
        </mxCell>
        <mxCell id="k9vhlAKsYk3Ox_He_cWh-27" value="Parallel&lt;div&gt;Filesystem&lt;/div&gt;" style="text;html=1;align=center;verticalAlign=middle;resizable=0;points=[];autosize=1;strokeColor=none;fillColor=none;" vertex="1" parent="1">
          <mxGeometry x="550" y="393" width="80" height="40" as="geometry" />
        </mxCell>
      </root>
    </mxGraphModel>
  </diagram>
</mxfile>
